<svg width="512" height="512" viewBox="0 0 512 512" fill="none" xmlns="http://www.w3.org/2000/svg">
<path d="M173.9 403.4C173.9 405.4 171.6 407 168.7 407C165.4 407.3 163.1 405.7 163.1 403.4C163.1 401.4 165.4 399.8 168.3 399.8C171.3 399.5 173.9 401.1 173.9 403.4ZM142.8 398.9C142.1 400.9 144.1 403.2 147.1 403.8C149.7 404.8 152.7 403.8 153.3 401.8C153.9 399.8 152 397.5 149 396.6C146.4 395.9 143.5 396.9 142.8 398.9ZM187 397.2C184.1 397.9 182.1 399.8 182.4 402.1C182.7 404.1 185.3 405.4 188.3 404.7C191.2 404 193.2 402.1 192.9 400.1C192.6 398.2 189.9 396.9 187 397.2ZM252.8 14C114.1 14 8 119.3 8 258C8 368.9 77.8 463.8 177.5 497.2C190.3 499.5 194.8 491.6 194.8 485.1C194.8 478.9 194.5 444.7 194.5 423.7C194.5 423.7 124.5 438.7 109.8 393.9C109.8 393.9 98.4 364.8 82 357.3C82 357.3 59.1 341.6 83.6 341.9C83.6 341.9 108.5 343.9 122.2 367.7C144.1 406.3 180.8 395.2 195.1 388.6C197.4 372.6 203.9 361.5 211.1 354.9C155.2 348.7 98.8 340.6 98.8 244.4C98.8 216.9 106.4 203.1 122.4 185.5C119.8 179 111.3 152.2 125 117.6C145.9 111.1 194 144.6 194 144.6C214 139 235.5 136.1 256.8 136.1C278.1 136.1 299.6 139 319.6 144.6C319.6 144.6 367.7 111 388.6 117.6C402.3 152.3 393.8 179 391.2 185.5C407.2 203.2 417 217 417 244.4C417 340.9 358.1 348.6 302.2 354.9C311.4 362.8 319.2 377.8 319.2 401.3C319.2 435 318.9 476.7 318.9 484.9C318.9 491.4 323.5 499.3 336.2 497C436.2 463.8 504 368.9 504 258C504 119.3 391.5 14 252.8 14ZM105.2 358.9C103.9 359.9 104.2 362.2 105.9 364.1C107.5 365.7 109.8 366.4 111.1 365.1C112.4 364.1 112.1 361.8 110.4 359.9C108.8 358.3 106.5 357.6 105.2 358.9ZM94.4 350.8C93.7 352.1 94.7 353.7 96.7 354.7C98.3 355.7 100.3 355.4 101 354C101.7 352.7 100.7 351.1 98.7 350.1C96.7 349.5 95.1 349.8 94.4 350.8ZM126.8 386.4C125.2 387.7 125.8 390.7 128.1 392.6C130.4 394.9 133.3 395.2 134.6 393.6C135.9 392.3 135.3 389.3 133.3 387.4C131.1 385.1 128.1 384.8 126.8 386.4ZM115.4 371.7C113.8 372.7 113.8 375.3 115.4 377.6C117 379.9 119.7 380.9 121 379.9C122.6 378.6 122.6 376 121 373.7C119.6 371.4 117 370.4 115.4 371.7Z" fill="black"/>
</svg>
